<?xml version="1.0" encoding="iso-8859-1"?>
<!-- Generator: Adobe Illustrator 19.0.0, SVG Export Plug-In . SVG Version: 6.00 Build 0)  -->
<svg version="1.1" id="Capa_1" xmlns="http://www.w3.org/2000/svg" xmlns:xlink="http://www.w3.org/1999/xlink" x="0px" y="0px"
	 viewBox="0 0 512 512" style="enable-background:new 0 0 512 512;" xml:space="preserve">
<path style="fill:#D7D7D7;" d="M279.5,367.5v32c0,17.673,14.327,32,32,32l0,0h-160l0,0c17.673,0,32-14.327,32-32v-32"/>
<rect x="183.5" y="367.5" style="fill:#828282;" width="96" height="16"/>
<rect x="7.5" y="79.5" style="fill:#B4EBFA;" width="448" height="288"/>
<g>
	<rect x="7.5" y="351.5" style="fill:#83DDF2;" width="448" height="16"/>
	<rect x="7" y="79.5" style="fill:#83DDF2;" width="48" height="288"/>
</g>
<g>
	<rect x="175.5" y="328" style="fill:#FFFFFF;" width="16" height="15"/>
	<rect x="223.5" y="328" style="fill:#FFFFFF;" width="16" height="15"/>
	<rect x="271.5" y="328" style="fill:#FFFFFF;" width="16" height="15"/>
</g>
<path style="fill:#B4EBFA;" d="M368,431.5L368,431.5c-8.837,0-16-7.163-16-16v-112h32v112C384,424.337,376.837,431.5,368,431.5z"/>
<rect x="352" y="303.5" style="fill:#83DDF2;" width="32" height="16"/>
<path style="fill:#82E8DF;" d="M368,431.5L368,431.5c-8.837,0-16-7.163-16-16v-32h32v32C384,424.337,376.837,431.5,368,431.5z"/>
<path style="fill:#0DB5AF;" d="M368,415.5v-32h-16v32c0,8.836,7.163,16,16,16c2.918,0,5.645-0.793,8-2.158
	C371.222,426.574,368,421.419,368,415.5z"/>
<path style="fill:#B4EBFA;" d="M472,338.242V303.5h-32v34.742c-18,6.59-31.75,24.36-31.75,45.258c0,26.51,21.615,48,48.125,48
	s47.813-21.49,47.813-48C504.188,362.602,491,344.832,472,338.242z"/>
<rect x="440.22" y="303.5" style="fill:#83DDF2;" width="32" height="16"/>
<path style="fill:#F5C346;" d="M504.5,383.5c0,26.51-21.49,48-48,48s-48-21.49-48-48"/>
<path style="fill:#D69627;" d="M433,383.5h-24.5c0,26.51,21.49,48,48,48c4.235,0,8.339-0.554,12.25-1.583
	C448.175,424.501,433,405.775,433,383.5z"/>
<polygon style="fill:#F5C346;" points="327.5,239.5 279.5,271.5 231.5,239.5 231.5,191.5 279.5,159.5 327.5,191.5 "/>
<polygon style="fill:#D69627;" points="231,215 231,239.5 279,271.5 327,239.5 327,215 279,247 "/>
<polygon style="fill:#82E8DF;" points="231.5,239.5 183.5,271.5 135.5,239.5 135.5,191.5 183.5,159.5 231.5,191.5 "/>
<polygon style="fill:#0DB5AF;" points="183,159.5 135,191.5 135,216 183,184 231,216 231,191.5 "/>
<g>
	<circle style="fill:#E6F9FF;" cx="183.5" cy="271.5" r="16"/>
	<circle style="fill:#E6F9FF;" cx="135.5" cy="191.5" r="16"/>
	<circle style="fill:#E6F9FF;" cx="279.5" cy="159.5" r="16"/>
	<circle style="fill:#E6F9FF;" cx="327.5" cy="239.5" r="16"/>
</g>
<path d="M287,399.5v-24h33v-15H15v-273h433v184h15v-199H0v303h176v24c0,13.51-10.991,25-24.5,25H135v15h192v-15h-15.5
	C297.991,424.5,287,413.01,287,399.5z M182.449,424.5c5.346-7,8.551-15.75,8.551-25v-24h81v24c0,9.25,3.205,18,8.551,25H182.449z"/>
<rect x="39" y="312.5" width="48" height="15"/>
<rect x="39" y="280.5" width="80" height="15"/>
<path d="M480.002,333.458L480,311.5h8v-15h-64v15h9v21.707c-11.934,5.58-21.318,15.293-26.76,27.293H391v-49h9v-15h-8.5h-47H336v15
	h8v104c0,12.958,10.542,23.5,23.5,23.5s23.5-10.542,23.5-23.5v-40h10.662c-0.432,2-0.662,5.373-0.662,8.25
	c0,30.603,24.897,55.375,55.5,55.375S512,414.29,512,383.688C512,362.021,499.342,342.502,480.002,333.458z M376,415.5
	c0,4.686-3.813,8.5-8.5,8.5s-8.5-3.814-8.5-8.5v-24h17V415.5z M376,376.5h-17v-65h17V376.5z M442.999,345.553l5.001-2.018V311.5
	h17.001l0.003,32.286l5,1.893c13.746,4.859,23.647,16.821,26.29,30.821h-79.586C419.349,362.5,429.251,350.411,442.999,345.553z
	 M456.5,424.5c-19.768,0-36.264-15-39.793-33h79.585C492.764,409.5,476.268,424.5,456.5,424.5z"/>
<path d="M371.34,277.74l8.32-12.48l-29.471-19.647c0.526-1.95,0.811-3.998,0.811-6.112c0-10.336-6.71-19.128-16-22.266v-21.721
	l44.66-29.773l-8.32-12.48l-43.84,29.227l-25.311-16.874c0.526-1.95,0.811-3.998,0.811-6.112c0-12.958-10.542-23.5-23.5-23.5
	S256,146.542,256,159.5c0,2.114,0.285,4.162,0.811,6.112L231.5,182.486l-40.5-27V127.5h-15v27.986l-26.143,17.429
	c-3.974-3.077-8.954-4.915-14.357-4.915s-10.383,1.838-14.357,4.915L91.66,153.26l-8.32,12.48l29.471,19.647
	c-0.526,1.95-0.811,3.998-0.811,6.112c0,10.336,6.71,19.128,16,22.266v29.748l32.811,21.874c-0.526,1.95-0.811,3.998-0.811,6.112
	c0,12.958,10.542,23.5,23.5,23.5s23.5-10.542,23.5-23.5c0-2.114-0.285-4.162-0.811-6.112l25.311-16.874l48,32l33.643-22.429
	c3.974,3.077,8.954,4.915,14.357,4.915s10.383-1.838,14.357-4.915L371.34,277.74z M135.5,200c-4.687,0-8.5-3.814-8.5-8.5
	s3.813-8.5,8.5-8.5s8.5,3.814,8.5,8.5S140.187,200,135.5,200z M183.5,280c-4.687,0-8.5-3.814-8.5-8.5s3.813-8.5,8.5-8.5
	s8.5,3.814,8.5,8.5S188.187,280,183.5,280z M224,235.486l-26.143,17.429c-3.974-3.077-8.954-4.915-14.357-4.915
	c-5.404,0-10.383,1.838-14.357,4.915L143,235.486v-21.721c9.29-3.138,16-11.93,16-22.266c0-2.114-0.285-4.162-0.811-6.112
	l25.311-16.874l40.5,27V235.486z M279.5,151c4.687,0,8.5,3.814,8.5,8.5s-3.813,8.5-8.5,8.5s-8.5-3.814-8.5-8.5
	S274.813,151,279.5,151z M304,239.5c0,2.114,0.285,4.162,0.811,6.112L279.5,262.486l-40.5-27v-39.973l26.143-17.429
	c3.974,3.077,8.954,4.915,14.357,4.915s10.383-1.838,14.357-4.915L320,195.514v21.721C310.71,220.372,304,229.164,304,239.5z
	 M327.5,248c-4.687,0-8.5-3.814-8.5-8.5s3.813-8.5,8.5-8.5s8.5,3.814,8.5,8.5S332.187,248,327.5,248z"/>
<g>
</g>
<g>
</g>
<g>
</g>
<g>
</g>
<g>
</g>
<g>
</g>
<g>
</g>
<g>
</g>
<g>
</g>
<g>
</g>
<g>
</g>
<g>
</g>
<g>
</g>
<g>
</g>
<g>
</g>
</svg>
