<?xml version="1.0" encoding="iso-8859-1"?>
<!-- Generator: Adobe Illustrator 19.0.0, SVG Export Plug-In . SVG Version: 6.00 Build 0)  -->
<svg version="1.1" id="Layer_1" xmlns="http://www.w3.org/2000/svg" xmlns:xlink="http://www.w3.org/1999/xlink" x="0px" y="0px"
	 viewBox="0 0 512 512" style="enable-background:new 0 0 512 512;" xml:space="preserve">
<path style="fill:#002833;" d="M0,355.28V31.36c0-5.76,4.72-10.48,10.48-10.48H501.6c5.68,0,10.4,4.72,10.4,10.48v323.92"/>
<g>
	<path style="fill:#E8E8E8;" d="M512,355.28v41.76c0,5.76-4.72,10.48-10.48,10.48H10.48C4.72,407.52,0,402.8,0,397.04v-41.76H512z"
		/>
	<rect x="146.32" y="480.64" style="fill:#E8E8E8;" width="219.44" height="10.48"/>
</g>
<polygon style="fill:#C9C9C9;" points="329.12,480.64 182.88,480.64 193.28,407.52 318.72,407.52 "/>
<rect x="20.88" y="41.76" style="fill:#FF5F5F;" width="470.24" height="292.56"/>
<g>
	<path style="fill:#FFFFFF;" d="M274.8,314.16c0,0-18.88-36.8,17.36-62.24c36.24-25.44,46.4-39.6,46.4-39.6s20.32-5.68,11.6,11.28
		s-23.2,28.24-23.2,28.24s27.52-5.68,34.8-28.24s0-35.36,17.36-39.6c0,0,8.72,42.4-17.36,67.84s-56.56,35.36-58,62.24H274.8V314.16z
		"/>
	<path style="fill:#FFFFFF;" d="M237.44,314.16c0,0,18.88-36.8-17.36-62.24c-36.24-25.44-46.4-39.6-46.4-39.6
		s-20.32-5.68-11.6,11.28s23.2,28.24,23.2,28.24s-27.52-5.68-34.8-28.24c-7.28-22.64,0-35.36-17.36-39.6c0,0-8.72,42.4,17.36,67.84
		s56.56,35.36,58,62.24h28.96V314.16z"/>
</g>
<circle style="fill:#002833;" cx="256.08" cy="128.72" r="67.84"/>
<path style="fill:#FFFFFF;" d="M254.48,172.64v-10.8c-6.24-0.08-12.64-2-16.4-4.72l2.56-7.2c3.84,2.56,9.44,4.64,15.44,4.64
	c7.6,0,12.72-4.4,12.72-10.48c0-5.92-4.16-9.52-12.08-12.72c-10.96-4.32-17.68-9.2-17.68-18.56c0-8.88,6.32-15.68,16.16-17.28v-10.8
	h6.64v10.4c6.4,0.24,10.8,1.92,13.92,3.76l-2.72,7.04c-2.24-1.28-6.64-3.68-13.52-3.68c-8.24,0-11.36,4.96-11.36,9.2
	c0,5.6,4,8.32,13.28,12.24c11.04,4.48,16.64,10.08,16.64,19.6c0,8.48-5.92,16.4-16.96,18.24v11.12H254.48z"/>
<g>
</g>
<g>
</g>
<g>
</g>
<g>
</g>
<g>
</g>
<g>
</g>
<g>
</g>
<g>
</g>
<g>
</g>
<g>
</g>
<g>
</g>
<g>
</g>
<g>
</g>
<g>
</g>
<g>
</g>
</svg>
